<svg width="87" height="64" viewBox="0 0 87 64" fill="none" xmlns="http://www.w3.org/2000/svg">
<path fill-rule="evenodd" clip-rule="evenodd" d="M50.7911 15.5162L49.7326 17.2071L48.8536 16.0783C48.5467 15.6842 48.8276 15.1096 49.327 15.1096H50.8766C50.897 15.2431 50.8726 15.386 50.7911 15.5162ZM53.1883 5.22549L51.0461 10.2445L46.2638 0.110567C68.3544 1.72574 85.8754 20.8388 86.4437 44.3947C86.3032 47.0959 85.0361 56.3417 74.4468 61.1331C71.6001 62.4211 69.1779 63.3435 67.1345 64L51.8746 64.0001L51.8747 64H24.4574H15.3705H14.1551C13.3225 63.6568 12.4472 63.2789 11.5276 62.8628C2.01242 58.5574 0.304744 50.7772 0.030956 47.3166C0.0103801 46.739 0 46.1587 0 45.5757C0 20.405 19.3543 0 43.229 0C43.496 0 43.7624 0.00255169 44.0282 0.00763321L39.2043 11.3656L36.2822 5.20392C36.0607 4.73668 35.3913 4.74987 35.1883 5.22549L31.5447 13.7623C31.3758 14.1581 31.6662 14.5978 32.0965 14.5978H32.2825C32.7539 14.5978 33.0412 15.1166 32.7911 15.5162L31.3892 17.7556L28.2822 11.2039C28.0607 10.7367 27.3913 10.7499 27.1883 11.2255L23.5447 19.7623C23.3758 20.1581 23.6662 20.5978 24.0965 20.5978H24.2825C24.7539 20.5978 25.0412 21.1166 24.7911 21.5162L22.7738 24.7387L20.8101 20.5978C20.5885 20.1306 19.9191 20.1438 19.7161 20.6194L16.0725 29.1562C15.9036 29.552 16.194 29.9917 16.6244 29.9917H16.8103C17.2818 29.9917 17.569 30.5105 17.3189 30.9101L14.5754 35.2927L13.125 32.2343C12.9034 31.7671 12.234 31.7803 12.031 32.2559L8.38747 40.7927C8.21853 41.1885 8.50895 41.6282 8.93931 41.6282H9.12526C9.59671 41.6282 9.88398 42.1469 9.63383 42.5466L6.76295 47.1327C6.5128 47.5324 6.80007 48.0511 7.27152 48.0511H7.81008C8.37922 48.0511 8.62856 48.7694 8.18183 49.1221L7.30511 49.8141C7.72563 50.8058 8.32099 51.7415 9.14816 52.5471H10.1113C10.4427 52.5471 10.7113 52.8158 10.7113 53.1471V53.7337C11.067 53.9422 11.4503 54.1328 11.8633 54.303L13.5592 55.0017V53.1471C13.5592 52.8158 13.8279 52.5471 14.1592 52.5471H14.1679C14.3078 53.5623 14.5335 54.5577 14.8393 55.5289C16.8449 56.3548 19.0653 57.2689 21.2834 58.1818H23.0938C22.8996 55.9908 22.8948 52.2486 24.209 47.7026C26.2029 40.8057 31.3327 31.7243 33.8632 28.2121C35.4363 26.0287 38.3552 23.2631 40.9282 21.0063C42.4096 19.7069 44.5358 21.1636 43.9303 23.0388L39.1923 37.7124L32.902 58.1818H36.7804C36.7888 58.0337 36.814 57.8835 36.8576 57.7332L42.9224 36.8161H54.4714C55.0237 36.8161 55.4714 36.3684 55.4714 35.8161C55.4714 35.2638 55.0237 34.8161 54.4714 34.8161H43.5023L47.6637 20.464C48.2177 18.5532 50.9184 18.5353 51.4979 20.4385L54.3916 29.9435H50.5377C49.9855 29.9435 49.5377 30.3912 49.5377 30.9435C49.5377 31.4957 49.9855 31.9435 50.5377 31.9435H54.9959L55.0005 31.9434L62.8443 57.7077C62.8926 57.8664 62.9203 58.0252 62.9291 58.1818H64.6289C67.0256 57.1168 69.4608 56.055 71.6387 55.1429V52.5472H72.2685C72.5999 52.5472 72.8685 52.8158 72.8685 53.1472V54.6302C77.7697 52.4978 78.7408 47.7472 78.7762 44.468L77.3129 42.598C77.0047 42.2041 77.2853 41.6282 77.7854 41.6282H78.5813C78.524 41.2517 78.4764 41.0376 78.4764 41.0376L78.8134 41.6277C79.2399 41.6109 79.5159 41.1617 79.3307 40.7711L75.2822 32.2343C75.0607 31.7671 74.3913 31.7803 74.1883 32.2559L73.3755 34.1601L70.8727 30.9615C70.5645 30.5676 70.8452 29.9917 71.3453 29.9917H72.3483C72.7889 29.9917 73.0793 29.5327 72.8905 29.1346L68.8421 20.5978C68.6205 20.1306 67.9511 20.1438 67.7481 20.6194L66.6268 23.2466L65.3129 21.5676C65.0047 21.1737 65.2853 20.5978 65.7854 20.5978H66.7885C67.2291 20.5978 67.5194 20.1388 67.3307 19.7407L63.2822 11.2039C63.0607 10.7367 62.3913 10.7499 62.1883 11.2255L58.9155 18.8936L56.3129 15.5676C56.0047 15.1737 56.2853 14.5978 56.7854 14.5978H57.7885C58.2291 14.5978 58.5194 14.1388 58.3307 13.7407L54.2822 5.20392C54.0607 4.73668 53.3913 4.74987 53.1883 5.22549ZM53.2908 58.1818C53.3889 58.1061 53.4847 58.027 53.5781 57.9445L53.8358 57.717C53.9572 57.6097 54.0671 57.4901 54.1637 57.3601L54.991 56.2467C55.093 56.1094 55.096 55.9223 54.9986 55.7818L54.6273 55.2465C54.5186 55.0896 54.2724 55.1666 54.2724 55.3575C54.2724 55.4443 54.215 55.5206 54.1316 55.5447L53.8297 55.6317C53.3179 55.7793 52.8746 55.2486 53.111 54.7713L54.1563 52.661C54.2286 52.5151 54.221 52.3423 54.1363 52.2032L53.8164 51.6786C53.6575 51.4179 53.2562 51.5305 53.2562 51.8359C53.2562 51.9602 53.1801 52.0718 53.0644 52.1172L52.8231 52.2119C52.218 52.4495 51.6549 51.7867 51.987 51.2279L52.3531 50.612C52.4451 50.4573 52.4901 50.2793 52.4827 50.0995L52.4304 48.8328C52.3901 47.857 51.9314 46.9458 51.1715 46.3321L50.0681 45.4411C49.9163 45.3185 49.7149 45.2759 49.5264 45.3267C48.9781 45.4743 48.9113 46.2253 49.425 46.4673L49.7104 46.6017C49.7871 46.6379 49.8569 46.6872 49.9167 46.7475L50.0172 46.849C50.3019 47.1363 50.4616 47.5244 50.4616 47.9288V48.4033C50.4616 48.6877 50.3923 48.9677 50.2599 49.2194L49.5416 50.5843C49.0824 51.4568 47.7983 51.3415 47.5019 50.4011L47.4815 50.3363C47.4365 50.1936 47.4298 50.0416 47.4619 49.8955C47.6278 49.1421 46.784 48.5755 46.144 49.0062C45.8401 49.2108 45.6978 49.5868 45.7922 49.9408L46.9615 54.3248C47.0898 54.8057 46.5055 55.1519 46.1453 54.8085C45.8078 54.4868 45.2538 54.7701 45.3169 55.2319L45.5713 57.094C45.6118 57.3901 45.7658 57.6588 46.0009 57.8434L46.4319 58.1818H47.1741C47.3149 56.8284 48.4489 55.7736 49.827 55.7736C51.2051 55.7736 52.3391 56.8284 52.4799 58.1818H53.2908ZM64.9622 31.5168H64.9711L64.9663 31.5244L64.9622 31.5168ZM59.7911 21.5162L58.95 22.8597L58.0649 22.0679C57.6544 21.7007 57.9142 21.0207 58.4649 21.0207H59.3486C59.5199 21.0207 59.6654 20.9531 59.7704 20.8485C59.9031 21.0347 59.9302 21.2939 59.7911 21.5162ZM38.3129 15.5676C38.1817 15.3999 38.1572 15.1992 38.2109 15.0241C38.3001 15.078 38.4054 15.1096 38.5209 15.1096H40.1206C40.5914 15.1096 40.8788 15.6272 40.6298 16.0269L39.7622 17.4197L38.3129 15.5676ZM30.2241 20.9857C30.1542 21.1694 30.172 21.3875 30.3129 21.5676L30.4998 21.8064C30.7299 21.6595 30.962 21.5165 31.1961 21.3775L31.3052 21.1219C31.2126 21.0589 31.0984 21.0207 30.9673 21.0207H30.4287C30.3557 21.0207 30.287 21.0083 30.2241 20.9857ZM15.1075 36.4146L15.6839 37.6301L15.8669 37.4856C16.3136 37.133 16.0643 36.4146 15.4951 36.4146H15.1075ZM15.6282 41.6282H16.0912C15.862 42.0731 15.6504 42.5248 15.4569 42.9829L15.1557 42.5979C14.8475 42.2041 15.1281 41.6282 15.6282 41.6282ZM71.414 41.6423C71.4909 41.7918 71.5658 41.942 71.6387 42.0931V42.79L71.7911 42.5466C72.017 42.1857 71.8046 41.7276 71.414 41.6423Z" fill="#F6F6F6"/>
</svg>
